<svg width="160" height="160" viewBox="0 0 160 160" fill="none" xmlns="http://www.w3.org/2000/svg">
<g clip-path="url(#clip0_1575_1304)">
<rect width="160" height="160" fill="#F1F1F1"/>
<rect width="160" height="160" fill="#F1F1F1"/>
<path d="M84.9465 63.2783H73.4394V59.8693C73.4394 59.0995 73.6422 58.4947 74.0479 58.0549C74.4905 57.615 75.1175 57.3951 75.9289 57.3951H104.31V63.2783H92.8024V95.2235H84.9465V63.2783ZM121.972 95.2235C121.345 95.2235 120.828 95.0769 120.423 94.7836C120.054 94.4904 119.759 94.0322 119.538 93.409L108.03 59.8693C107.772 59.1362 107.809 58.5497 108.141 58.1098C108.473 57.6333 109.026 57.3951 109.801 57.3951H115.333L125.678 90.385H124.185L134.696 57.3951H142.165L129.44 95.2235H121.972Z" fill="#0050FF"/>
<path fill-rule="evenodd" clip-rule="evenodd" d="M36.8007 95.8642C25.5236 95.8642 17.7773 86.9772 17.7773 76.2654C17.7773 64.8882 25.3738 56.6666 36.8007 56.6666C48.1207 56.6666 55.7385 64.8882 55.7385 76.2654C55.7385 86.9772 47.9923 95.8642 36.8007 95.8642ZM36.7793 62.2479C29.3969 62.2479 25.0742 69.1386 25.0742 76.2654C25.0742 82.9415 28.6693 90.2829 36.7793 90.2829C44.8467 90.2829 48.4203 82.9415 48.4203 76.2654C48.4203 69.1386 44.0978 62.2479 36.7793 62.2479ZM65.9673 101.639V104.215H54.9898V101.446C55.1874 101.256 55.452 101.013 55.7631 100.727C57.8766 98.7858 62.137 94.8725 62.137 92.2151C62.137 90.6912 60.7889 89.9828 59.4408 89.9828C58.0499 89.9828 56.723 90.6052 55.6317 91.3136L55.3749 88.5658C56.873 87.8146 58.5849 87.3853 60.2753 87.3853C63.4209 87.3853 65.4538 88.9737 65.4538 92.2367C65.4538 95.5293 62.3654 98.5589 59.7597 101.115C59.5793 101.292 59.4013 101.467 59.2268 101.639H65.9673Z" fill="#0050FF"/>
</g>
<defs>
<clipPath id="clip0_1575_1304">
<rect width="160" height="160" fill="white"/>
</clipPath>
</defs>
</svg>
