<svg width="72" height="72" viewBox="0 0 72 72" fill="none" xmlns="http://www.w3.org/2000/svg">
<g clip-path="url(#clip0_13_4101)">
<rect width="72" height="72" fill="white"/>
<rect width="72" height="72" fill="#019DF4"/>
<path d="M14.7217 27.3561C13.2515 27.3785 10.5377 28.0751 9.29822 32.9389C8.75834 35.0583 8.54949 37.2673 9.01175 39.8968C9.43809 42.322 10.1934 44.4153 10.7021 45.5689C10.8777 45.9661 11.1493 46.3809 11.3593 46.6358C11.9633 47.3696 12.9689 47.3226 13.3914 47.1228C13.8519 46.9049 14.3812 46.3789 14.1895 45.1779C14.0969 44.5978 13.8298 43.749 13.6795 43.2771C13.6226 43.0983 13.5633 42.915 13.503 42.7287C13.0752 41.4057 12.5977 39.9287 12.5508 38.838C12.4791 37.1733 13.1621 36.9555 13.6159 36.8595C14.3786 36.6983 15.0184 37.5032 15.6259 38.5116C15.8592 38.8991 16.146 39.3827 16.4617 39.9148C17.1269 41.0362 17.9198 42.3729 18.6074 43.4779C19.5224 44.9487 21.211 46.5234 23.9232 46.4154C26.6881 46.3053 28.7261 45.2916 29.776 42.1006C29.8911 41.7509 30.0008 41.4142 30.1069 41.0884L30.1072 41.0876C30.7257 39.1893 31.2235 37.6615 31.9588 36.1023C32.9498 34.0016 34.2715 32.877 35.3847 33.2204C36.4182 33.5391 36.676 34.5096 36.6884 35.9363C36.6995 37.1984 36.5477 38.5895 36.4294 39.6117C36.3863 39.9825 36.3088 40.7286 36.3405 41.1431C36.4029 41.9572 36.7698 42.7707 37.7241 42.9008C38.7409 43.0394 39.5566 42.2587 39.8824 41.3152C40.011 40.9431 40.1206 40.3739 40.1796 39.9701C40.4784 37.9309 40.5561 36.5602 40.4213 34.4738C40.2636 32.0338 39.7669 29.8088 38.8997 27.8833C38.0705 26.042 36.7383 24.8618 35.0297 24.7576C33.1385 24.6422 30.9683 25.8479 29.8296 28.1872C29.1352 29.6138 28.5327 31.0656 28.0569 32.2119C27.8136 32.798 27.6035 33.3042 27.4312 33.6864C26.9144 34.8322 26.1556 35.5381 24.9884 35.6561C23.5612 35.8005 22.3318 34.805 21.4311 33.3861C20.6458 32.1487 19.0898 29.7932 18.257 29.0018C18.2247 28.971 18.1921 28.94 18.1593 28.9087C17.3994 28.1832 16.5046 27.329 14.7217 27.3561Z" fill="white"/>
<path d="M48.9733 30.2176H44.7006V28.819H55.069L54.912 30.2176H50.7179V42.4843H48.9733V30.2176Z" fill="white"/>
<path d="M56.2052 32.9547H54.4607L57.9695 42.2456H59.7944L63.2433 32.9547H61.559L58.9322 40.6338L56.2052 32.9547Z" fill="white"/>
</g>
<defs>
<clipPath id="clip0_13_4101">
<rect width="72" height="72" fill="white"/>
</clipPath>
</defs>
</svg>
