<svg width="92" height="92" viewBox="0 0 92 92" fill="none" xmlns="http://www.w3.org/2000/svg">
<rect width="92" height="92" fill="#0C0C0C"/>
<path d="M14.6934 32.3692C12.3694 32.4046 8.07957 33.5031 6.1202 41.173C5.26678 44.515 4.93664 47.9985 5.66737 52.145C6.3413 55.9692 7.53526 59.2703 8.33948 61.0894C8.61694 61.7158 9.04636 62.3699 9.37823 62.7719C10.3331 63.929 11.9227 63.8548 12.5905 63.5398C13.3184 63.1962 14.1552 62.3667 13.8521 60.4729C13.7058 59.5581 13.2835 58.2196 13.046 57.4754C12.956 57.1935 12.8623 56.9045 12.767 56.6106C12.0908 54.5244 11.3358 52.1953 11.2617 50.4753C11.1484 47.8501 12.2281 47.5067 12.9454 47.3554C14.151 47.1011 15.1625 48.3704 16.1228 49.9607C16.4915 50.5716 16.945 51.3343 17.4439 52.1733C18.4955 53.9417 19.7489 56.0496 20.8358 57.792C22.2823 60.1114 24.9515 62.5947 29.2388 62.4243C33.6095 62.2506 36.8311 60.6522 38.4907 55.6202C38.6726 55.0688 38.846 54.5378 39.0138 54.024L39.0143 54.0227C39.992 51.0292 40.7789 48.62 41.9412 46.1614C43.5078 42.8486 45.597 41.0753 47.3567 41.6168C48.9905 42.1194 49.3981 43.6498 49.4176 45.8996C49.4351 47.8898 49.1952 50.0835 49.0081 51.6954C48.94 52.28 48.8176 53.4566 48.8676 54.1103C48.9663 55.3941 49.5463 56.6769 51.0548 56.882C52.6622 57.1006 53.9515 55.8695 54.4665 54.3816C54.6699 53.7949 54.8431 52.8973 54.9363 52.2605C55.4086 49.0448 55.5315 46.8834 55.3184 43.5933C55.0692 39.7456 54.284 36.2369 52.9132 33.2005C51.6024 30.2969 49.4965 28.4359 46.7955 28.2716C43.8061 28.0896 40.3755 29.9909 38.5755 33.6799C37.4778 35.9294 36.5253 38.2188 35.7732 40.0264C35.3887 40.9506 35.0565 41.749 34.7842 42.3517C33.9672 44.1584 32.7678 45.2717 30.9226 45.4576C28.6665 45.6854 26.7232 44.1156 25.2995 41.8781C24.058 39.9267 21.5983 36.2124 20.2819 34.9643C20.2308 34.9158 20.1793 34.8669 20.1275 34.8175C18.9262 33.6735 17.5118 32.3264 14.6934 32.3692Z" fill="white"/>
<path d="M77.6819 42.308H87.0003V48.7689H77.6819V57.5385H71.1594V48.7689H62.7727V42.308H71.1594V33.5385H77.6819V42.308Z" fill="white"/>
</svg>
